<svg width="24" height="24" viewBox="0 0 24 24" fill="none" xmlns="http://www.w3.org/2000/svg">
<path d="M22 2L8 2C6.1144 2 5.1716 2 4.5858 2.58579C4 3.17157 4 4.11438 4 6L4 12C4 13.8856 4 14.8284 4.5858 15.4142C5.1716 16 6.1144 16 8 16L15 16" stroke="currentColor" stroke-width="1.5" stroke-linecap="round" stroke-linejoin="round"/>
<path d="M14 6.5L8 6.5" stroke="currentColor" stroke-width="1.5" stroke-linecap="round" stroke-linejoin="round"/>
<path d="M22 17L22 13C22 12.0572 22 11.5858 21.7071 11.2929C21.4142 11 20.9428 11 20 11L18 11M22 17L18 17M22 17L22 22M18 11L18 17M18 11L15 11L12 11M18 17L18 22" stroke="currentColor" stroke-width="1.5" stroke-linecap="round" stroke-linejoin="round"/>
<path d="M18 6.5C18 7.60457 18.8954 8.5 20 8.5C21.1046 8.5 22 7.60457 22 6.5C22 5.39543 21.1046 4.5 20 4.5C18.8954 4.5 18 5.39543 18 6.5Z" stroke="currentColor" stroke-width="1.5"/>
</svg>
